<?xml version="1.0" encoding="UTF-8" standalone="no"?>
<!DOCTYPE svg PUBLIC "-//W3C//DTD SVG 1.1//EN"
 "http://www.w3.org/Graphics/SVG/1.1/DTD/svg11.dtd">
<!-- Generated by graphviz version 2.38.0 (20140413.2041)
 -->
<!-- Title: controllers_diagram Pages: 1 -->
<svg width="565pt" height="613pt"
 viewBox="0.00 0.00 564.61 613.00" xmlns="http://www.w3.org/2000/svg" xmlns:xlink="http://www.w3.org/1999/xlink">
<g id="graph0" class="graph" transform="scale(1 1) rotate(0) translate(164.45 353.5)">
<title>controllers_diagram</title>
<polygon fill="none" stroke="none" points="-164.45,259.5 -164.45,-353.5 400.162,-353.5 400.162,259.5 -164.45,259.5"/>
<!-- _diagram_info -->
<g id="node1" class="node"><title>_diagram_info</title>
<text text-anchor="start" x="-152.45" y="100.9" font-family="Times,serif" font-size="13.00">Controllers diagram</text>
<text text-anchor="start" x="-152.45" y="113.9" font-family="Times,serif" font-size="13.00">Date: Nov 21 2016 &#45; 20:07</text>
<text text-anchor="start" x="-152.45" y="126.9" font-family="Times,serif" font-size="13.00">Migration version: 20161121230303</text>
<text text-anchor="start" x="-152.45" y="139.9" font-family="Times,serif" font-size="13.00">Generated by RailRoady 1.5.2</text>
<text text-anchor="start" x="-152.45" y="152.9" font-family="Times,serif" font-size="13.00">http://railroady.prestonlee.com</text>
</g>
<!-- ApplicationController -->
<g id="node2" class="node"><title>ApplicationController</title>
<path fill="none" stroke="black" d="M268.179,-257C268.179,-257 383.821,-257 383.821,-257 389.821,-257 395.821,-263 395.821,-269 395.821,-269 395.821,-337 395.821,-337 395.821,-343 389.821,-349 383.821,-349 383.821,-349 268.179,-349 268.179,-349 262.179,-349 256.179,-343 256.179,-337 256.179,-337 256.179,-269 256.179,-269 256.179,-263 262.179,-257 268.179,-257"/>
<text text-anchor="middle" x="326" y="-333.8" font-family="Times,serif" font-size="14.00">ApplicationController</text>
<polyline fill="none" stroke="black" points="256.179,-327 395.821,-327 "/>
<polyline fill="none" stroke="black" points="256.179,-303 395.821,-303 "/>
<polyline fill="none" stroke="black" points="256.179,-279 395.821,-279 "/>
<text text-anchor="start" x="264.179" y="-263.8" font-family="Times,serif" font-size="14.00">_layout</text>
</g>
<!-- GenresController -->
<g id="node3" class="node"><title>GenresController</title>
<path fill="none" stroke="black" d="M92.4033,-81C92.4033,-81 181.597,-81 181.597,-81 187.597,-81 193.597,-87 193.597,-93 193.597,-93 193.597,-271 193.597,-271 193.597,-277 187.597,-283 181.597,-283 181.597,-283 92.4033,-283 92.4033,-283 86.4033,-283 80.4033,-277 80.4033,-271 80.4033,-271 80.4033,-93 80.4033,-93 80.4033,-87 86.4033,-81 92.4033,-81"/>
<text text-anchor="middle" x="137" y="-267.8" font-family="Times,serif" font-size="14.00">GenresController</text>
<polyline fill="none" stroke="black" points="80.4033,-261 193.597,-261 "/>
<text text-anchor="start" x="88.4033" y="-245.8" font-family="Times,serif" font-size="14.00">index</text>
<text text-anchor="start" x="88.4033" y="-231.8" font-family="Times,serif" font-size="14.00">destroy</text>
<text text-anchor="start" x="88.4033" y="-217.8" font-family="Times,serif" font-size="14.00">edit</text>
<text text-anchor="start" x="88.4033" y="-203.8" font-family="Times,serif" font-size="14.00">create</text>
<text text-anchor="start" x="88.4033" y="-189.8" font-family="Times,serif" font-size="14.00">new</text>
<text text-anchor="start" x="88.4033" y="-175.8" font-family="Times,serif" font-size="14.00">show</text>
<text text-anchor="start" x="88.4033" y="-161.8" font-family="Times,serif" font-size="14.00">update</text>
<polyline fill="none" stroke="black" points="80.4033,-155 193.597,-155 "/>
<polyline fill="none" stroke="black" points="80.4033,-131 193.597,-131 "/>
<text text-anchor="start" x="88.4033" y="-115.8" font-family="Times,serif" font-size="14.00">_layout</text>
<text text-anchor="start" x="88.4033" y="-101.8" font-family="Times,serif" font-size="14.00">genre_params</text>
<text text-anchor="start" x="88.4033" y="-87.8" font-family="Times,serif" font-size="14.00">set_genre</text>
</g>
<!-- Users::ConfirmationsController -->
<g id="node4" class="node"><title>Users::ConfirmationsController</title>
<path fill="none" stroke="black" d="M-131.662,-145C-131.662,-145 37.6621,-145 37.6621,-145 43.6621,-145 49.6621,-151 49.6621,-157 49.6621,-157 49.6621,-225 49.6621,-225 49.6621,-231 43.6621,-237 37.6621,-237 37.6621,-237 -131.662,-237 -131.662,-237 -137.662,-237 -143.662,-231 -143.662,-225 -143.662,-225 -143.662,-157 -143.662,-157 -143.662,-151 -137.662,-145 -131.662,-145"/>
<text text-anchor="middle" x="-47" y="-221.8" font-family="Times,serif" font-size="14.00">Users::ConfirmationsController</text>
<polyline fill="none" stroke="black" points="-143.662,-215 49.6621,-215 "/>
<polyline fill="none" stroke="black" points="-143.662,-191 49.6621,-191 "/>
<polyline fill="none" stroke="black" points="-143.662,-167 49.6621,-167 "/>
<text text-anchor="start" x="-135.662" y="-151.8" font-family="Times,serif" font-size="14.00">_layout</text>
</g>
<!-- Users::OmniauthCallbacksController -->
<g id="node5" class="node"><title>Users::OmniauthCallbacksController</title>
<path fill="none" stroke="black" d="M-116.204,47C-116.204,47 84.2036,47 84.2036,47 90.2036,47 96.2036,41 96.2036,35 96.2036,35 96.2036,-33 96.2036,-33 96.2036,-39 90.2036,-45 84.2036,-45 84.2036,-45 -116.204,-45 -116.204,-45 -122.204,-45 -128.204,-39 -128.204,-33 -128.204,-33 -128.204,35 -128.204,35 -128.204,41 -122.204,47 -116.204,47"/>
<text text-anchor="middle" x="-16" y="-29.8" font-family="Times,serif" font-size="14.00">Users::OmniauthCallbacksController</text>
<polyline fill="none" stroke="black" points="-128.204,-23 96.2036,-23 "/>
<polyline fill="none" stroke="black" points="-128.204,1 96.2036,1 "/>
<polyline fill="none" stroke="black" points="-128.204,25 96.2036,25 "/>
<text text-anchor="start" x="-120.204" y="40.2" font-family="Times,serif" font-size="14.00">_layout</text>
</g>
<!-- Users::PasswordsController -->
<g id="node6" class="node"><title>Users::PasswordsController</title>
<path fill="none" stroke="black" d="M235.838,-1C235.838,-1 384.162,-1 384.162,-1 390.162,-1 396.162,-7 396.162,-13 396.162,-13 396.162,-81 396.162,-81 396.162,-87 390.162,-93 384.162,-93 384.162,-93 235.838,-93 235.838,-93 229.838,-93 223.838,-87 223.838,-81 223.838,-81 223.838,-13 223.838,-13 223.838,-7 229.838,-1 235.838,-1"/>
<text text-anchor="middle" x="310" y="-77.8" font-family="Times,serif" font-size="14.00">Users::PasswordsController</text>
<polyline fill="none" stroke="black" points="223.838,-71 396.162,-71 "/>
<polyline fill="none" stroke="black" points="223.838,-47 396.162,-47 "/>
<polyline fill="none" stroke="black" points="223.838,-23 396.162,-23 "/>
<text text-anchor="start" x="231.838" y="-7.8" font-family="Times,serif" font-size="14.00">_layout</text>
</g>
<!-- Users::RegistrationsController -->
<g id="node7" class="node"><title>Users::RegistrationsController</title>
<path fill="none" stroke="black" d="M140.424,127C140.424,127 327.576,127 327.576,127 333.576,127 339.576,121 339.576,115 339.576,115 339.576,49 339.576,49 339.576,43 333.576,37 327.576,37 327.576,37 140.424,37 140.424,37 134.424,37 128.424,43 128.424,49 128.424,49 128.424,115 128.424,115 128.424,121 134.424,127 140.424,127"/>
<text text-anchor="middle" x="234" y="52.2" font-family="Times,serif" font-size="14.00">Users::RegistrationsController</text>
<polyline fill="none" stroke="black" points="128.424,59 339.576,59 "/>
<text text-anchor="start" x="136.424" y="74.2" font-family="Times,serif" font-size="14.00">configure_account_update_params</text>
<polyline fill="none" stroke="black" points="128.424,81 339.576,81 "/>
<polyline fill="none" stroke="black" points="128.424,105 339.576,105 "/>
<text text-anchor="start" x="136.424" y="120.2" font-family="Times,serif" font-size="14.00">_layout</text>
</g>
<!-- Users::SessionsController -->
<g id="node8" class="node"><title>Users::SessionsController</title>
<path fill="none" stroke="black" d="M236.279,-129C236.279,-129 373.721,-129 373.721,-129 379.721,-129 385.721,-135 385.721,-141 385.721,-141 385.721,-209 385.721,-209 385.721,-215 379.721,-221 373.721,-221 373.721,-221 236.279,-221 236.279,-221 230.279,-221 224.279,-215 224.279,-209 224.279,-209 224.279,-141 224.279,-141 224.279,-135 230.279,-129 236.279,-129"/>
<text text-anchor="middle" x="305" y="-205.8" font-family="Times,serif" font-size="14.00">Users::SessionsController</text>
<polyline fill="none" stroke="black" points="224.279,-199 385.721,-199 "/>
<polyline fill="none" stroke="black" points="224.279,-175 385.721,-175 "/>
<polyline fill="none" stroke="black" points="224.279,-151 385.721,-151 "/>
<text text-anchor="start" x="232.279" y="-135.8" font-family="Times,serif" font-size="14.00">_layout</text>
</g>
<!-- Users::UnlocksController -->
<g id="node9" class="node"><title>Users::UnlocksController</title>
<path fill="none" stroke="black" d="M92.0654,255C92.0654,255 227.935,255 227.935,255 233.935,255 239.935,249 239.935,243 239.935,243 239.935,175 239.935,175 239.935,169 233.935,163 227.935,163 227.935,163 92.0654,163 92.0654,163 86.0654,163 80.0654,169 80.0654,175 80.0654,175 80.0654,243 80.0654,243 80.0654,249 86.0654,255 92.0654,255"/>
<text text-anchor="middle" x="160" y="178.2" font-family="Times,serif" font-size="14.00">Users::UnlocksController</text>
<polyline fill="none" stroke="black" points="80.0654,185 239.935,185 "/>
<polyline fill="none" stroke="black" points="80.0654,209 239.935,209 "/>
<polyline fill="none" stroke="black" points="80.0654,233 239.935,233 "/>
<text text-anchor="start" x="88.0654" y="248.2" font-family="Times,serif" font-size="14.00">_layout</text>
</g>
</g>
</svg>
