<?xml version="1.0" encoding="UTF-8" standalone="no"?>
<!DOCTYPE svg PUBLIC "-//W3C//DTD SVG 1.1//EN"
 "http://www.w3.org/Graphics/SVG/1.1/DTD/svg11.dtd">
<!-- Generated by graphviz version 2.38.0 (20140413.2041)
 -->
<!-- Title: models_diagram Pages: 1 -->
<svg width="482pt" height="297pt"
 viewBox="0.00 0.00 482.20 297.00" xmlns="http://www.w3.org/2000/svg" xmlns:xlink="http://www.w3.org/1999/xlink">
<g id="graph0" class="graph" transform="scale(1 1) rotate(0) translate(4 293)">
<title>models_diagram</title>
<polygon fill="none" stroke="none" points="-4,4 -4,-293 478.2,-293 478.2,4 -4,4"/>
<!-- _diagram_info -->
<g id="node1" class="node"><title>_diagram_info</title>
<text text-anchor="start" x="8" y="-274.6" font-family="Times,serif" font-size="13.00">Models diagram</text>
<text text-anchor="start" x="8" y="-261.6" font-family="Times,serif" font-size="13.00">Date: Nov 21 2016 &#45; 20:19</text>
<text text-anchor="start" x="8" y="-248.6" font-family="Times,serif" font-size="13.00">Migration version: 20161121231158</text>
<text text-anchor="start" x="8" y="-235.6" font-family="Times,serif" font-size="13.00">Generated by RailRoady 1.5.2</text>
<text text-anchor="start" x="8" y="-222.6" font-family="Times,serif" font-size="13.00">http://railroady.prestonlee.com</text>
</g>
<!-- ApplicationRecord -->
<g id="node2" class="node"><title>ApplicationRecord</title>
<ellipse fill="none" stroke="black" cx="302.212" cy="-252.5" rx="77.2916" ry="18"/>
<text text-anchor="middle" x="302.212" y="-248.3" font-family="Times,serif" font-size="14.00">ApplicationRecord</text>
</g>
<!-- Genre -->
<g id="node3" class="node"><title>Genre</title>
<ellipse fill="none" stroke="black" cx="429.212" cy="-252.5" rx="31.9219" ry="18"/>
<text text-anchor="middle" x="429.212" y="-248.3" font-family="Times,serif" font-size="14.00">Genre</text>
</g>
<!-- Song -->
<g id="node4" class="node"><title>Song</title>
<ellipse fill="none" stroke="black" cx="429.212" cy="-162" rx="28.0822" ry="18"/>
<text text-anchor="middle" x="429.212" y="-157.8" font-family="Times,serif" font-size="14.00">Song</text>
</g>
<!-- Genre&#45;&gt;Song -->
<g id="edge1" class="edge"><title>Genre&#45;&gt;Song</title>
<path fill="none" stroke="#e9ca8a" d="M429.212,-226.189C429.212,-214.971 429.212,-201.752 429.212,-190.311"/>
<ellipse fill="none" stroke="#e9ca8a" cx="429.212" cy="-230.436" rx="4" ry="4"/>
<polygon fill="#e9ca8a" stroke="#e9ca8a" points="429.212,-190.011 433.712,-180.011 429.212,-185.011 429.212,-180.011 429.212,-180.011 429.212,-180.011 429.212,-185.011 424.712,-180.011 429.212,-190.011 429.212,-190.011"/>
</g>
<!-- User -->
<g id="node5" class="node"><title>User</title>
<ellipse fill="none" stroke="black" cx="402.212" cy="-90" rx="27" ry="18"/>
<text text-anchor="middle" x="402.212" y="-85.8" font-family="Times,serif" font-size="14.00">User</text>
</g>
<!-- Song&#45;&gt;User -->
<g id="edge3" class="edge"><title>Song&#45;&gt;User</title>
<path fill="none" stroke="#75fa66" d="M419.205,-135.056C416.968,-129.258 414.594,-123.104 412.353,-117.291"/>
<polygon fill="#75fa66" stroke="#75fa66" points="419.214,-135.081 418.615,-146.03 421.014,-139.746 422.813,-144.411 422.813,-144.411 422.813,-144.411 421.014,-139.746 427.012,-142.792 419.214,-135.081 419.214,-135.081"/>
<polygon fill="#75fa66" stroke="#75fa66" points="412.351,-117.286 412.95,-106.337 410.551,-112.621 408.752,-107.956 408.752,-107.956 408.752,-107.956 410.551,-112.621 404.553,-109.576 412.351,-117.286 412.351,-117.286"/>
</g>
<!-- UserSong -->
<g id="node6" class="node"><title>UserSong</title>
<ellipse fill="none" stroke="black" cx="429.212" cy="-18" rx="44.9768" ry="18"/>
<text text-anchor="middle" x="429.212" y="-13.8" font-family="Times,serif" font-size="14.00">UserSong</text>
</g>
<!-- Song&#45;&gt;UserSong -->
<g id="edge2" class="edge"><title>Song&#45;&gt;UserSong</title>
<path fill="none" stroke="#6ad1d1" d="M434.362,-135.907C435.929,-127.121 437.439,-117.162 438.212,-108 439.556,-92.0566 439.556,-87.9434 438.212,-72 437.495,-63.4991 436.143,-54.3119 434.7,-46.0122"/>
<ellipse fill="none" stroke="#6ad1d1" cx="433.601" cy="-139.976" rx="4.00001" ry="4.00001"/>
<polygon fill="#6ad1d1" stroke="#6ad1d1" points="434.684,-45.9257 437.29,-35.2741 433.775,-41.0091 432.865,-36.0925 432.865,-36.0925 432.865,-36.0925 433.775,-41.0091 428.441,-36.9109 434.684,-45.9257 434.684,-45.9257"/>
</g>
<!-- User&#45;&gt;UserSong -->
<g id="edge4" class="edge"><title>User&#45;&gt;UserSong</title>
<path fill="none" stroke="#2dd7dc" d="M411.554,-64.7779C413.959,-58.544 416.558,-51.8046 419.004,-45.4634"/>
<ellipse fill="none" stroke="#2dd7dc" cx="410.05" cy="-68.679" rx="4.00001" ry="4.00001"/>
<polygon fill="#2dd7dc" stroke="#2dd7dc" points="419.073,-45.2862 426.87,-37.5757 420.872,-40.6212 422.671,-35.9562 422.671,-35.9562 422.671,-35.9562 420.872,-40.6212 418.473,-34.3368 419.073,-45.2862 419.073,-45.2862"/>
</g>
</g>
</svg>
