<?xml version="1.0" encoding="UTF-8" standalone="no"?>
<!DOCTYPE svg PUBLIC "-//W3C//DTD SVG 1.1//EN"
 "http://www.w3.org/Graphics/SVG/1.1/DTD/svg11.dtd">
<!-- Generated by graphviz version 2.38.0 (20140413.2041)
 -->
<!-- Title: models_diagram Pages: 1 -->
<svg width="913pt" height="235pt"
 viewBox="0.00 0.00 912.73 235.00" xmlns="http://www.w3.org/2000/svg" xmlns:xlink="http://www.w3.org/1999/xlink">
<g id="graph0" class="graph" transform="scale(1 1) rotate(0) translate(4 231)">
<title>models_diagram</title>
<polygon fill="none" stroke="none" points="-4,4 -4,-231 908.728,-231 908.728,4 -4,4"/>
<!-- _diagram_info -->
<g id="node1" class="node"><title>_diagram_info</title>
<text text-anchor="start" x="8" y="-135.6" font-family="Times,serif" font-size="13.00">Models diagram</text>
<text text-anchor="start" x="8" y="-122.6" font-family="Times,serif" font-size="13.00">Date: Nov 21 2016 &#45; 20:07</text>
<text text-anchor="start" x="8" y="-109.6" font-family="Times,serif" font-size="13.00">Migration version: 20161121230303</text>
<text text-anchor="start" x="8" y="-96.6" font-family="Times,serif" font-size="13.00">Generated by RailRoady 1.5.2</text>
<text text-anchor="start" x="8" y="-83.6" font-family="Times,serif" font-size="13.00">http://railroady.prestonlee.com</text>
</g>
<!-- ApplicationRecord -->
<g id="node2" class="node"><title>ApplicationRecord</title>
<ellipse fill="none" stroke="black" cx="302.45" cy="-113.5" rx="77.2916" ry="18"/>
<text text-anchor="middle" x="302.45" y="-109.3" font-family="Times,serif" font-size="14.00">ApplicationRecord</text>
</g>
<!-- Genre -->
<g id="node3" class="node"><title>Genre</title>
<path fill="none" stroke="black" d="M409.944,-70.5C409.944,-70.5 518.955,-70.5 518.955,-70.5 524.955,-70.5 530.955,-76.5 530.955,-82.5 530.955,-82.5 530.955,-144.5 530.955,-144.5 530.955,-150.5 524.955,-156.5 518.955,-156.5 518.955,-156.5 409.944,-156.5 409.944,-156.5 403.944,-156.5 397.944,-150.5 397.944,-144.5 397.944,-144.5 397.944,-82.5 397.944,-82.5 397.944,-76.5 403.944,-70.5 409.944,-70.5"/>
<text text-anchor="middle" x="464.45" y="-141.3" font-family="Times,serif" font-size="14.00">Genre</text>
<polyline fill="none" stroke="black" points="397.944,-134.5 530.955,-134.5 "/>
<text text-anchor="start" x="405.944" y="-119.3" font-family="Times,serif" font-size="14.00">id :INTEGER</text>
<text text-anchor="start" x="405.944" y="-105.3" font-family="Times,serif" font-size="14.00">name :varchar</text>
<text text-anchor="start" x="405.944" y="-91.3" font-family="Times,serif" font-size="14.00">created_at :datetime</text>
<text text-anchor="start" x="405.944" y="-77.3" font-family="Times,serif" font-size="14.00">updated_at :datetime</text>
</g>
<!-- Song -->
<g id="node4" class="node"><title>Song</title>
<path fill="none" stroke="black" d="M560.944,-49.5C560.944,-49.5 669.955,-49.5 669.955,-49.5 675.955,-49.5 681.955,-55.5 681.955,-61.5 681.955,-61.5 681.955,-165.5 681.955,-165.5 681.955,-171.5 675.955,-177.5 669.955,-177.5 669.955,-177.5 560.944,-177.5 560.944,-177.5 554.944,-177.5 548.944,-171.5 548.944,-165.5 548.944,-165.5 548.944,-61.5 548.944,-61.5 548.944,-55.5 554.944,-49.5 560.944,-49.5"/>
<text text-anchor="middle" x="615.45" y="-162.3" font-family="Times,serif" font-size="14.00">Song</text>
<polyline fill="none" stroke="black" points="548.944,-155.5 681.955,-155.5 "/>
<text text-anchor="start" x="556.944" y="-140.3" font-family="Times,serif" font-size="14.00">genres_id :integer</text>
<text text-anchor="start" x="556.944" y="-126.3" font-family="Times,serif" font-size="14.00">name :varchar</text>
<text text-anchor="start" x="556.944" y="-112.3" font-family="Times,serif" font-size="14.00">duration :integer</text>
<text text-anchor="start" x="556.944" y="-98.3" font-family="Times,serif" font-size="14.00">id :INTEGER</text>
<text text-anchor="start" x="556.944" y="-84.3" font-family="Times,serif" font-size="14.00">genre_id :integer</text>
<text text-anchor="start" x="556.944" y="-70.3" font-family="Times,serif" font-size="14.00">created_at :datetime</text>
<text text-anchor="start" x="556.944" y="-56.3" font-family="Times,serif" font-size="14.00">updated_at :datetime</text>
</g>
<!-- User -->
<g id="node5" class="node"><title>User</title>
<path fill="none" stroke="black" d="M712.172,-0.5C712.172,-0.5 892.728,-0.5 892.728,-0.5 898.728,-0.5 904.728,-6.5 904.728,-12.5 904.728,-12.5 904.728,-214.5 904.728,-214.5 904.728,-220.5 898.728,-226.5 892.728,-226.5 892.728,-226.5 712.172,-226.5 712.172,-226.5 706.172,-226.5 700.172,-220.5 700.172,-214.5 700.172,-214.5 700.172,-12.5 700.172,-12.5 700.172,-6.5 706.172,-0.5 712.172,-0.5"/>
<text text-anchor="middle" x="802.45" y="-211.3" font-family="Times,serif" font-size="14.00">User</text>
<polyline fill="none" stroke="black" points="700.172,-204.5 904.728,-204.5 "/>
<text text-anchor="start" x="708.172" y="-189.3" font-family="Times,serif" font-size="14.00">name :varchar</text>
<text text-anchor="start" x="708.172" y="-175.3" font-family="Times,serif" font-size="14.00">email :varchar</text>
<text text-anchor="start" x="708.172" y="-161.3" font-family="Times,serif" font-size="14.00">encrypted_password :varchar</text>
<text text-anchor="start" x="708.172" y="-147.3" font-family="Times,serif" font-size="14.00">reset_password_token :varchar</text>
<text text-anchor="start" x="708.172" y="-133.3" font-family="Times,serif" font-size="14.00">reset_password_sent_at :datetime</text>
<text text-anchor="start" x="708.172" y="-119.3" font-family="Times,serif" font-size="14.00">remember_created_at :datetime</text>
<text text-anchor="start" x="708.172" y="-105.3" font-family="Times,serif" font-size="14.00">sign_in_count :integer</text>
<text text-anchor="start" x="708.172" y="-91.3" font-family="Times,serif" font-size="14.00">current_sign_in_at :datetime</text>
<text text-anchor="start" x="708.172" y="-77.3" font-family="Times,serif" font-size="14.00">last_sign_in_at :datetime</text>
<text text-anchor="start" x="708.172" y="-63.3" font-family="Times,serif" font-size="14.00">current_sign_in_ip :varchar</text>
<text text-anchor="start" x="708.172" y="-49.3" font-family="Times,serif" font-size="14.00">last_sign_in_ip :varchar</text>
<text text-anchor="start" x="708.172" y="-35.3" font-family="Times,serif" font-size="14.00">created_at :datetime</text>
<text text-anchor="start" x="708.172" y="-21.3" font-family="Times,serif" font-size="14.00">updated_at :datetime</text>
<text text-anchor="start" x="708.172" y="-7.3" font-family="Times,serif" font-size="14.00">id :INTEGER</text>
</g>
</g>
</svg>
