<?xml version="1.0" encoding="UTF-8" standalone="no"?>
<!DOCTYPE svg PUBLIC "-//W3C//DTD SVG 1.1//EN"
 "http://www.w3.org/Graphics/SVG/1.1/DTD/svg11.dtd">
<!-- Generated by graphviz version 2.38.0 (20140413.2041)
 -->
<!-- Title: models_diagram Pages: 1 -->
<svg width="539pt" height="674pt"
 viewBox="0.00 0.00 538.72 674.00" xmlns="http://www.w3.org/2000/svg" xmlns:xlink="http://www.w3.org/1999/xlink">
<g id="graph0" class="graph" transform="scale(1 1) rotate(0) translate(4 670)">
<title>models_diagram</title>
<polygon fill="none" stroke="none" points="-4,4 -4,-670 534.717,-670 534.717,4 -4,4"/>
<!-- _diagram_info -->
<g id="node1" class="node"><title>_diagram_info</title>
<text text-anchor="start" x="8" y="-644.6" font-family="Times,serif" font-size="13.00">Models diagram</text>
<text text-anchor="start" x="8" y="-631.6" font-family="Times,serif" font-size="13.00">Date: Nov 21 2016 &#45; 20:19</text>
<text text-anchor="start" x="8" y="-618.6" font-family="Times,serif" font-size="13.00">Migration version: 20161121231158</text>
<text text-anchor="start" x="8" y="-605.6" font-family="Times,serif" font-size="13.00">Generated by RailRoady 1.5.2</text>
<text text-anchor="start" x="8" y="-592.6" font-family="Times,serif" font-size="13.00">http://railroady.prestonlee.com</text>
</g>
<!-- ApplicationRecord -->
<g id="node2" class="node"><title>ApplicationRecord</title>
<ellipse fill="none" stroke="black" cx="302.212" cy="-622.5" rx="77.2916" ry="18"/>
<text text-anchor="middle" x="302.212" y="-618.3" font-family="Times,serif" font-size="14.00">ApplicationRecord</text>
</g>
<!-- Genre -->
<g id="node3" class="node"><title>Genre</title>
<path fill="none" stroke="black" d="M409.706,-579.5C409.706,-579.5 518.717,-579.5 518.717,-579.5 524.717,-579.5 530.717,-585.5 530.717,-591.5 530.717,-591.5 530.717,-653.5 530.717,-653.5 530.717,-659.5 524.717,-665.5 518.717,-665.5 518.717,-665.5 409.706,-665.5 409.706,-665.5 403.706,-665.5 397.706,-659.5 397.706,-653.5 397.706,-653.5 397.706,-591.5 397.706,-591.5 397.706,-585.5 403.706,-579.5 409.706,-579.5"/>
<text text-anchor="middle" x="464.212" y="-650.3" font-family="Times,serif" font-size="14.00">Genre</text>
<polyline fill="none" stroke="black" points="397.706,-643.5 530.717,-643.5 "/>
<text text-anchor="start" x="405.706" y="-628.3" font-family="Times,serif" font-size="14.00">id :INTEGER</text>
<text text-anchor="start" x="405.706" y="-614.3" font-family="Times,serif" font-size="14.00">name :varchar</text>
<text text-anchor="start" x="405.706" y="-600.3" font-family="Times,serif" font-size="14.00">created_at :datetime</text>
<text text-anchor="start" x="405.706" y="-586.3" font-family="Times,serif" font-size="14.00">updated_at :datetime</text>
</g>
<!-- Song -->
<g id="node4" class="node"><title>Song</title>
<path fill="none" stroke="black" d="M409.706,-414.5C409.706,-414.5 518.717,-414.5 518.717,-414.5 524.717,-414.5 530.717,-420.5 530.717,-426.5 530.717,-426.5 530.717,-530.5 530.717,-530.5 530.717,-536.5 524.717,-542.5 518.717,-542.5 518.717,-542.5 409.706,-542.5 409.706,-542.5 403.706,-542.5 397.706,-536.5 397.706,-530.5 397.706,-530.5 397.706,-426.5 397.706,-426.5 397.706,-420.5 403.706,-414.5 409.706,-414.5"/>
<text text-anchor="middle" x="464.212" y="-527.3" font-family="Times,serif" font-size="14.00">Song</text>
<polyline fill="none" stroke="black" points="397.706,-520.5 530.717,-520.5 "/>
<text text-anchor="start" x="405.706" y="-505.3" font-family="Times,serif" font-size="14.00">genres_id :integer</text>
<text text-anchor="start" x="405.706" y="-491.3" font-family="Times,serif" font-size="14.00">name :varchar</text>
<text text-anchor="start" x="405.706" y="-477.3" font-family="Times,serif" font-size="14.00">duration :integer</text>
<text text-anchor="start" x="405.706" y="-463.3" font-family="Times,serif" font-size="14.00">id :INTEGER</text>
<text text-anchor="start" x="405.706" y="-449.3" font-family="Times,serif" font-size="14.00">genre_id :integer</text>
<text text-anchor="start" x="405.706" y="-435.3" font-family="Times,serif" font-size="14.00">created_at :datetime</text>
<text text-anchor="start" x="405.706" y="-421.3" font-family="Times,serif" font-size="14.00">updated_at :datetime</text>
</g>
<!-- Genre&#45;&gt;Song -->
<g id="edge1" class="edge"><title>Genre&#45;&gt;Song</title>
<path fill="none" stroke="#cfc52e" d="M464.212,-571.275C464.212,-565.329 464.212,-559.171 464.212,-552.986"/>
<ellipse fill="none" stroke="#cfc52e" cx="464.212" cy="-575.28" rx="4" ry="4"/>
<polygon fill="#cfc52e" stroke="#cfc52e" points="464.212,-552.588 468.712,-542.588 464.212,-547.588 464.212,-542.588 464.212,-542.588 464.212,-542.588 464.212,-547.588 459.712,-542.588 464.212,-552.588 464.212,-552.588"/>
</g>
<!-- User -->
<g id="node5" class="node"><title>User</title>
<path fill="none" stroke="black" d="M308.934,-151.5C308.934,-151.5 489.49,-151.5 489.49,-151.5 495.49,-151.5 501.49,-157.5 501.49,-163.5 501.49,-163.5 501.49,-365.5 501.49,-365.5 501.49,-371.5 495.49,-377.5 489.49,-377.5 489.49,-377.5 308.934,-377.5 308.934,-377.5 302.934,-377.5 296.934,-371.5 296.934,-365.5 296.934,-365.5 296.934,-163.5 296.934,-163.5 296.934,-157.5 302.934,-151.5 308.934,-151.5"/>
<text text-anchor="middle" x="399.212" y="-362.3" font-family="Times,serif" font-size="14.00">User</text>
<polyline fill="none" stroke="black" points="296.934,-355.5 501.49,-355.5 "/>
<text text-anchor="start" x="304.934" y="-340.3" font-family="Times,serif" font-size="14.00">name :varchar</text>
<text text-anchor="start" x="304.934" y="-326.3" font-family="Times,serif" font-size="14.00">email :varchar</text>
<text text-anchor="start" x="304.934" y="-312.3" font-family="Times,serif" font-size="14.00">encrypted_password :varchar</text>
<text text-anchor="start" x="304.934" y="-298.3" font-family="Times,serif" font-size="14.00">reset_password_token :varchar</text>
<text text-anchor="start" x="304.934" y="-284.3" font-family="Times,serif" font-size="14.00">reset_password_sent_at :datetime</text>
<text text-anchor="start" x="304.934" y="-270.3" font-family="Times,serif" font-size="14.00">remember_created_at :datetime</text>
<text text-anchor="start" x="304.934" y="-256.3" font-family="Times,serif" font-size="14.00">sign_in_count :integer</text>
<text text-anchor="start" x="304.934" y="-242.3" font-family="Times,serif" font-size="14.00">current_sign_in_at :datetime</text>
<text text-anchor="start" x="304.934" y="-228.3" font-family="Times,serif" font-size="14.00">last_sign_in_at :datetime</text>
<text text-anchor="start" x="304.934" y="-214.3" font-family="Times,serif" font-size="14.00">current_sign_in_ip :varchar</text>
<text text-anchor="start" x="304.934" y="-200.3" font-family="Times,serif" font-size="14.00">last_sign_in_ip :varchar</text>
<text text-anchor="start" x="304.934" y="-186.3" font-family="Times,serif" font-size="14.00">created_at :datetime</text>
<text text-anchor="start" x="304.934" y="-172.3" font-family="Times,serif" font-size="14.00">updated_at :datetime</text>
<text text-anchor="start" x="304.934" y="-158.3" font-family="Times,serif" font-size="14.00">id :INTEGER</text>
</g>
<!-- Song&#45;&gt;User -->
<g id="edge3" class="edge"><title>Song&#45;&gt;User</title>
<path fill="none" stroke="#753c12" d="M441.885,-404.681C440.155,-399.038 438.382,-393.255 436.589,-387.406"/>
<polygon fill="#753c12" stroke="#753c12" points="441.954,-404.906 440.583,-415.786 443.42,-409.687 444.886,-414.467 444.886,-414.467 444.886,-414.467 443.42,-409.687 449.188,-413.148 441.954,-404.906 441.954,-404.906"/>
<polygon fill="#753c12" stroke="#753c12" points="436.487,-387.075 437.858,-376.195 435.021,-382.294 433.556,-377.514 433.556,-377.514 433.556,-377.514 435.021,-382.294 429.253,-378.833 436.487,-387.075 436.487,-387.075"/>
</g>
<!-- UserSong -->
<g id="node6" class="node"><title>UserSong</title>
<path fill="none" stroke="black" d="M409.706,-0.5C409.706,-0.5 518.717,-0.5 518.717,-0.5 524.717,-0.5 530.717,-6.5 530.717,-12.5 530.717,-12.5 530.717,-102.5 530.717,-102.5 530.717,-108.5 524.717,-114.5 518.717,-114.5 518.717,-114.5 409.706,-114.5 409.706,-114.5 403.706,-114.5 397.706,-108.5 397.706,-102.5 397.706,-102.5 397.706,-12.5 397.706,-12.5 397.706,-6.5 403.706,-0.5 409.706,-0.5"/>
<text text-anchor="middle" x="464.212" y="-99.3" font-family="Times,serif" font-size="14.00">UserSong</text>
<polyline fill="none" stroke="black" points="397.706,-92.5 530.717,-92.5 "/>
<text text-anchor="start" x="405.706" y="-77.3" font-family="Times,serif" font-size="14.00">id :INTEGER</text>
<text text-anchor="start" x="405.706" y="-63.3" font-family="Times,serif" font-size="14.00">position :integer</text>
<text text-anchor="start" x="405.706" y="-49.3" font-family="Times,serif" font-size="14.00">song_id :integer</text>
<text text-anchor="start" x="405.706" y="-35.3" font-family="Times,serif" font-size="14.00">user_id :integer</text>
<text text-anchor="start" x="405.706" y="-21.3" font-family="Times,serif" font-size="14.00">created_at :datetime</text>
<text text-anchor="start" x="405.706" y="-7.3" font-family="Times,serif" font-size="14.00">updated_at :datetime</text>
</g>
<!-- Song&#45;&gt;UserSong -->
<g id="edge2" class="edge"><title>Song&#45;&gt;UserSong</title>
<path fill="none" stroke="#b35a73" d="M501.306,-406.886C504.964,-397.389 508.099,-387.606 510.212,-378 531.886,-279.467 533.285,-249.215 510.212,-151 508.103,-142.025 504.987,-132.924 501.352,-124.11"/>
<ellipse fill="none" stroke="#b35a73" cx="499.763" cy="-410.721" rx="4.00001" ry="4.00001"/>
<polygon fill="#b35a73" stroke="#b35a73" points="501.234,-123.841 501.35,-112.876 499.231,-119.26 497.227,-114.679 497.227,-114.679 497.227,-114.679 499.231,-119.26 493.104,-116.481 501.234,-123.841 501.234,-123.841"/>
</g>
<!-- User&#45;&gt;UserSong -->
<g id="edge4" class="edge"><title>User&#45;&gt;UserSong</title>
<path fill="none" stroke="#c599f7" d="M437.201,-143.688C439.29,-137.099 441.348,-130.608 443.339,-124.329"/>
<ellipse fill="none" stroke="#c599f7" cx="435.964" cy="-147.59" rx="4.00001" ry="4.00001"/>
<polygon fill="#c599f7" stroke="#c599f7" points="443.385,-124.185 450.697,-116.013 444.896,-119.419 446.407,-114.653 446.407,-114.653 446.407,-114.653 444.896,-119.419 442.118,-113.293 443.385,-124.185 443.385,-124.185"/>
</g>
</g>
</svg>
